<svg width="95" height="27" viewBox="0 0 95 27" fill="none" xmlns="http://www.w3.org/2000/svg">
<path d="M21.5965 0.545454V26H16.948L5.8738 9.97905H5.68737V26H0.30562V0.545454H5.02863L16.0158 16.554H16.2396V0.545454H21.5965ZM34.5692 26.3729C32.6386 26.3729 30.9689 25.9627 29.5603 25.1424C28.16 24.3138 27.0787 23.1621 26.3164 21.6871C25.5541 20.204 25.1729 18.4846 25.1729 16.5291C25.1729 14.5571 25.5541 12.8336 26.3164 11.3587C27.0787 9.87547 28.16 8.72372 29.5603 7.90341C30.9689 7.07481 32.6386 6.66051 34.5692 6.66051C36.4998 6.66051 38.1653 7.07481 39.5657 7.90341C40.9743 8.72372 42.0597 9.87547 42.822 11.3587C43.5844 12.8336 43.9655 14.5571 43.9655 16.5291C43.9655 18.4846 43.5844 20.204 42.822 21.6871C42.0597 23.1621 40.9743 24.3138 39.5657 25.1424C38.1653 25.9627 36.4998 26.3729 34.5692 26.3729ZM34.5941 22.2713C35.4724 22.2713 36.2057 22.0227 36.794 21.5256C37.3823 21.0201 37.8256 20.3324 38.1239 19.4624C38.4305 18.5923 38.5838 17.6022 38.5838 16.4918C38.5838 15.3815 38.4305 14.3913 38.1239 13.5213C37.8256 12.6513 37.3823 11.9635 36.794 11.4581C36.2057 10.9527 35.4724 10.6999 34.5941 10.6999C33.7075 10.6999 32.9617 10.9527 32.3568 11.4581C31.7603 11.9635 31.3087 12.6513 31.0021 13.5213C30.7038 14.3913 30.5546 15.3815 30.5546 16.4918C30.5546 17.6022 30.7038 18.5923 31.0021 19.4624C31.3087 20.3324 31.7603 21.0201 32.3568 21.5256C32.9617 22.0227 33.7075 22.2713 34.5941 22.2713ZM52.7031 0.545454V26H47.4083V0.545454H52.7031ZM62.3884 26.3604C61.1703 26.3604 60.0849 26.1491 59.132 25.7266C58.1791 25.2957 57.4251 24.6618 56.8699 23.8249C56.323 22.9798 56.0496 21.9274 56.0496 20.668C56.0496 19.6074 56.2443 18.7166 56.6337 17.9957C57.0232 17.2749 57.5535 16.6948 58.2247 16.2557C58.8958 15.8165 59.6581 15.4851 60.5116 15.2614C61.3733 15.0376 62.2765 14.8802 63.2211 14.7891C64.3314 14.6731 65.2263 14.5653 65.9058 14.4659C66.5852 14.3582 67.0782 14.2008 67.3848 13.9936C67.6914 13.7865 67.8447 13.4799 67.8447 13.0739V12.9993C67.8447 12.2121 67.5961 11.6031 67.0989 11.1722C66.6101 10.7414 65.914 10.5259 65.0109 10.5259C64.058 10.5259 63.2998 10.7372 62.7364 11.1598C62.1729 11.5741 61.8001 12.0961 61.6178 12.7259L56.7207 12.3281C56.9693 11.1681 57.4582 10.1655 58.1874 9.32031C58.9165 8.46686 59.857 7.81226 61.0087 7.35653C62.1688 6.89252 63.5111 6.66051 65.0357 6.66051C66.0963 6.66051 67.1114 6.7848 68.0808 7.03338C69.0586 7.28196 69.9245 7.66726 70.6785 8.18927C71.4408 8.71129 72.0415 9.38246 72.4807 10.2028C72.9198 11.0148 73.1394 11.9884 73.1394 13.1236V26H68.1181V23.3526H67.969C67.6624 23.9492 67.2522 24.4754 66.7385 24.9311C66.2248 25.3786 65.6075 25.7307 64.8866 25.9876C64.1657 26.2362 63.333 26.3604 62.3884 26.3604ZM63.9047 22.7063C64.6836 22.7063 65.3713 22.553 65.9679 22.2464C66.5645 21.9316 67.0327 21.509 67.3724 20.9787C67.7121 20.4484 67.882 19.8477 67.882 19.1765V17.1506C67.7163 17.2583 67.4884 17.3577 67.1984 17.4489C66.9167 17.5317 66.5976 17.6104 66.2413 17.685C65.885 17.7513 65.5287 17.8134 65.1725 17.8714C64.8162 17.9212 64.493 17.9667 64.203 18.0082C63.5815 18.0993 63.0388 18.2443 62.5748 18.4432C62.1108 18.642 61.7503 18.9113 61.4935 19.2511C61.2366 19.5825 61.1082 19.9968 61.1082 20.494C61.1082 21.2148 61.3692 21.7659 61.8912 22.147C62.4215 22.5199 63.0927 22.7063 63.9047 22.7063ZM82.5419 14.9631V26H77.2472V6.90909H82.2934V10.2773H82.5171C82.9397 9.16702 83.6481 8.28871 84.6424 7.6424C85.6368 6.98781 86.8424 6.66051 88.2593 6.66051C89.585 6.66051 90.7409 6.95052 91.727 7.53054C92.713 8.11056 93.4794 8.93916 94.0263 10.0163C94.5732 11.0852 94.8466 12.3613 94.8466 13.8445V26H89.5519V14.7891C89.5602 13.6207 89.2619 12.7093 88.657 12.0547C88.0521 11.3918 87.2194 11.0604 86.1588 11.0604C85.4462 11.0604 84.8165 11.2137 84.2696 11.5202C83.731 11.8268 83.3084 12.2743 83.0018 12.8626C82.7035 13.4426 82.5502 14.1428 82.5419 14.9631Z" fill="#87E5CA"/>
</svg>
